<svg id="icon_address" xmlns="http://www.w3.org/2000/svg" width="26" height="26" viewBox="0 0 26 26">
  <g id="レイヤー_4" data-name="レイヤー 4" transform="translate(0 0)" opacity="0">
    <rect id="長方形_994" data-name="長方形 994" width="26" height="26"/>
  </g>
  <g id="レイヤー_1" data-name="レイヤー 1" transform="translate(0.452)">
    <path id="パス_954" data-name="パス 954" d="M2077.579,72.334h11.871V71.147a2.644,2.644,0,0,0-1.577-2.411,11.569,11.569,0,0,0-8.718,0,2.644,2.644,0,0,0-1.576,2.411Zm5.936-5.626a2.723,2.723,0,1,0-1.948-.8A2.654,2.654,0,0,0,2083.515,66.708Z" transform="translate(-2068.855 -53.776)"/>
    <path id="パス_955" data-name="パス 955" d="M2093.931,54.348H2073.3a1.143,1.143,0,0,0-1.143,1.144v3.866h-1.547a1.083,1.083,0,0,0,0,2.167h1.547v4.74h-1.547a1.083,1.083,0,0,0,0,2.167h1.547v4.74h-1.547a1.083,1.083,0,0,0,0,2.167h1.547v3.868a1.142,1.142,0,0,0,1.143,1.143h20.632a1.143,1.143,0,0,0,1.143-1.143V55.492A1.144,1.144,0,0,0,2093.931,54.348Zm-.807,24.05h-19.018v-3.06h1.192a1.083,1.083,0,1,0,0-2.167h-1.192v-4.74h1.192a1.083,1.083,0,1,0,0-2.167h-1.192v-4.74h1.192a1.083,1.083,0,1,0,0-2.167h-1.192V56.3h19.018Z" transform="translate(-2069.526 -54.348)"/>
  </g>
</svg>
