<svg xmlns="http://www.w3.org/2000/svg" xmlns:xlink="http://www.w3.org/1999/xlink" width="20" height="20" viewBox="0 0 20 20">
  <defs>
    <clipPath id="clip-path">
      <rect id="長方形_1010" data-name="長方形 1010" width="20" height="20" fill="#222"/>
    </clipPath>
  </defs>
  <g id="Google_tel" clip-path="url(#clip-path)">
    <path id="パス_1010" data-name="パス 1010" d="M15.68,7.112a.811.811,0,0,1,.027-1.1l1.547-1.551H11.627a.776.776,0,0,1-.8-.8.777.777,0,0,1,.8-.8h5.626l-1.493-1.5A.725.725,0,0,1,15.533.8a.822.822,0,0,1,.254-.562.772.772,0,0,1,1.12,0L19.76,3.1a.815.815,0,0,1,.187.267.841.841,0,0,1,0,.588.823.823,0,0,1-.187.267L16.827,7.139a.8.8,0,0,1-.587.241.683.683,0,0,1-.56-.267M18,20a14.352,14.352,0,0,1-6.467-1.6A21.961,21.961,0,0,1,5.76,14.225,22.009,22.009,0,0,1,1.6,8.436,14.451,14.451,0,0,1,0,1.952,1.163,1.163,0,0,1,.347,1.1,1.157,1.157,0,0,1,1.2.749H4.933A.942.942,0,0,1,5.587,1a1.18,1.18,0,0,1,.36.682l.72,3.369a1.923,1.923,0,0,1-.013.682,1.029,1.029,0,0,1-.28.522l-2.667,2.7a22.194,22.194,0,0,0,3.347,4.332,18.5,18.5,0,0,0,4.2,3.128l2.534-2.62a1.47,1.47,0,0,1,.613-.414,1.231,1.231,0,0,1,.694-.04l3.173.7a1.168,1.168,0,0,1,.934,1.15V18.8A1.186,1.186,0,0,1,18,20M2.907,7.487l2.16-2.193L4.453,2.353H1.6a9.218,9.218,0,0,0,.32,2.286,21.569,21.569,0,0,0,.987,2.848M17.6,18.4V15.535l-2.747-.561-2.107,2.219a13.29,13.29,0,0,0,2.373.829,12.506,12.506,0,0,0,2.48.374" transform="translate(0 0)" fill="#222"/>
  </g>
</svg>
