<svg id="グループ_877" data-name="グループ 877" xmlns="http://www.w3.org/2000/svg" xmlns:xlink="http://www.w3.org/1999/xlink" width="56.118" height="35.646" viewBox="0 0 56.118 35.646">
  <defs>
    <clipPath id="clip-path">
      <rect id="長方形_254" data-name="長方形 254" width="56.118" height="35.646" fill="none"/>
    </clipPath>
  </defs>
  <g id="グループ_208" data-name="グループ 208" transform="translate(0 0)" clip-path="url(#clip-path)">
    <path id="パス_247" data-name="パス 247" d="M34.069,43.7c-2.817,2.342-7.934,3.635-8.748,3.751-.275.04,7.765.01,7.765.01H65.618V43.7Z" transform="translate(-10.339 -17.846)" fill="#222"/>
    <path id="パス_248" data-name="パス 248" d="M60.372,11.3H36.415a16.134,16.134,0,0,1,.647,1.679h23.31a2.312,2.312,0,0,1,2.309,2.309V36.271a2.312,2.312,0,0,1-2.309,2.309h-36.2a2.312,2.312,0,0,1-2.309-2.309V34.208c-.091,0-.181.007-.273.007-.474,0-.942-.025-1.406-.064v2.12a3.992,3.992,0,0,0,3.987,3.988h36.2a3.992,3.992,0,0,0,3.988-3.988V15.283A3.992,3.992,0,0,0,60.372,11.3" transform="translate(-8.242 -4.613)" fill="#222"/>
    <path id="パス_249" data-name="パス 249" d="M13.345,26.69A13.345,13.345,0,1,1,26.69,13.345,13.36,13.36,0,0,1,13.345,26.69m0-25.011A11.666,11.666,0,1,0,25.011,13.345,11.68,11.68,0,0,0,13.345,1.679" transform="translate(0 0)" fill="#222"/>
    <path id="パス_250" data-name="パス 250" d="M13.215,22.01v-1.8h3.929v-.806l-.168-.269H13.215V17.359h2.67l-3.426-5.575h3.073l2.988,5.087,2.988-5.087H24.6l-3.425,5.575h2.67v1.779H20.065l-.168.269v.806h3.946v1.8H19.9v3.274H17.143V22.01Z" transform="translate(-5.088 -4.813)" fill="#222"/>
  </g>
</svg>
