<svg id="icon_cart" xmlns="http://www.w3.org/2000/svg" width="24" height="24" viewBox="0 0 24 24">
  <rect id="長方形_58" data-name="長方形 58" width="24" height="24" fill="none"/>
  <g id="レイヤー_1" data-name="レイヤー 1" transform="translate(-1848.99 -24.225)">
    <path id="パス_794" data-name="パス 794" d="M1870.1,30.058a.9.9,0,0,0-.9-.833H1865.7v-.287a4.713,4.713,0,0,0-9.426,0v.287h-3.505a.9.9,0,0,0-.9.833l-1.282,17.091a.9.9,0,0,0,.9.967h19a.9.9,0,0,0,.9-.967Zm-12.027-1.12a2.912,2.912,0,1,1,5.824,0v.287h-5.824Zm-5.618,17.378,1.147-15.291h2.67v2.1a.9.9,0,0,0,1.8,0v-2.1h5.824v2.1a.9.9,0,0,0,1.8,0v-2.1h2.67l1.148,15.291Z" fill="#222"/>
  </g>
</svg>
