<svg id="icon_category" xmlns="http://www.w3.org/2000/svg" viewBox="0 0 18 18">
  <rect id="長方形_735" data-name="長方形 735" fill="#222" opacity="0"/>
  <g id="グループ_436" data-name="グループ 436" transform="translate(1.106 0.685)">
    <g id="グループ_435" data-name="グループ 435" transform="translate(0 8.4)">
      <path id="パス_818" data-name="パス 818" d="M1831.862,78.083h-6.75v-6.75h6.75Zm-5.4-1.35h4.05v-4.05h-4.05Z" transform="translate(-1825.112 -70.583)" fill="#222"/>
      <path id="パス_819" data-name="パス 819" d="M1838.07,78a3.75,3.75,0,1,1,3.749-3.749A3.754,3.754,0,0,1,1838.07,78Zm0-6.15a2.4,2.4,0,1,0,2.4,2.4A2.4,2.4,0,0,0,1838.07,71.85Z" transform="translate(-1826.033 -70.5)" fill="#222"/>
    </g>
    <path id="パス_820" data-name="パス 820" d="M1837.828,68.854h-8.877l4.439-7.687Zm-6.538-1.35h4.2l-2.1-3.637Z" transform="translate(-1825.496 -61.167)" fill="#222"/>
  </g>
</svg>
