<svg id="グループ_879" data-name="グループ 879" xmlns="http://www.w3.org/2000/svg" xmlns:xlink="http://www.w3.org/1999/xlink" width="51.093" height="42.583" viewBox="0 0 51.093 42.583">
  <defs>
    <clipPath id="clip-path">
      <rect id="長方形_256" data-name="長方形 256" width="51.093" height="42.583" fill="none"/>
    </clipPath>
  </defs>
  <g id="グループ_215" data-name="グループ 215" transform="translate(0 0)" clip-path="url(#clip-path)">
    <path id="パス_251" data-name="パス 251" d="M58.7,32.9a.978.978,0,0,1-.715-.311l-7.809-8.358H45.235V22.273H50.6a.976.976,0,0,1,.715.311l6.565,7.027.454-6.427a.978.978,0,0,1,.976-.91H64.4V1.959H38.844V6.305H36.885V.979A.979.979,0,0,1,37.864,0H65.38a.979.979,0,0,1,.979.979V23.252a.979.979,0,0,1-.979.979H60.225l-.548,7.758a.979.979,0,0,1-.976.91" transform="translate(-15.266 0)" fill="#222"/>
    <path id="パス_252" data-name="パス 252" d="M7.829,48.738a.979.979,0,0,1-.976-.91L6.305,40.07H.979A.979.979,0,0,1,0,39.09V15.849a.979.979,0,0,1,.979-.979H28.495a.978.978,0,0,1,.979.979V39.09a.979.979,0,0,1-.979.979H16.354l-7.81,8.357a.979.979,0,0,1-.716.311M1.959,38.111H7.218a.978.978,0,0,1,.976.91l.453,6.427,6.566-7.026a.976.976,0,0,1,.715-.311H27.515V16.828H1.959Z" transform="translate(0 -6.155)" fill="#222"/>
    <path id="パス_253" data-name="パス 253" d="M23.953,35.707H17.238l-1.1,2.388H13.513l5.762-12.666h2.642L27.678,38.1H25.035ZM20.6,28.089l-2.385,5.393H22.98Z" transform="translate(-5.593 -10.525)" fill="#222"/>
    <path id="パス_254" data-name="パス 254" d="M67.075,25.41H64.528l-1.281-1.566a6.659,6.659,0,0,1-2.516.475A6.358,6.358,0,0,1,54.2,17.754a6.526,6.526,0,1,1,13.052,0,6.677,6.677,0,0,1-2.294,5.11Zm-3.512-4.224a4.742,4.742,0,0,0,1.471-3.433,4.316,4.316,0,1,0-8.622,0,4.365,4.365,0,0,0,4.3,4.525,4.612,4.612,0,0,0,1.124-.142l-2.326-2.864H61.98Z" transform="translate(-22.432 -4.631)" fill="#222"/>
  </g>
</svg>
