<svg id="icon_guide" xmlns="http://www.w3.org/2000/svg" width="24" height="24" viewBox="0 0 24 24">
  <rect id="長方形_719" data-name="長方形 719" width="24" height="24" fill="#68bfcc" opacity="0"/>
  <path id="パス_797" data-name="パス 797" d="M1634.083,99.708a2.22,2.22,0,1,1,1.6-.65A2.173,2.173,0,0,1,1634.083,99.708Zm4.625-4.25a2.22,2.22,0,1,1,1.6-.65A2.173,2.173,0,0,1,1638.708,95.458Zm6.25,0a2.22,2.22,0,1,1,1.6-.65A2.173,2.173,0,0,1,1644.958,95.458Zm4.625,4.25a2.22,2.22,0,1,1,1.6-.65A2.173,2.173,0,0,1,1649.583,99.708Zm-13.1,10.25a2.17,2.17,0,0,1-1.725-.787,2.77,2.77,0,0,1-.675-1.863,2.934,2.934,0,0,1,.638-1.862,20.106,20.106,0,0,1,1.362-1.563,12.147,12.147,0,0,0,1.025-1.162q.476-.614.9-1.263a14.98,14.98,0,0,1,1.625-2.05,2.917,2.917,0,0,1,2.2-.95,2.955,2.955,0,0,1,2.213.95,13.73,13.73,0,0,1,1.637,2.075q.426.651.888,1.25a11.865,11.865,0,0,0,1.012,1.15,19.913,19.913,0,0,1,1.363,1.563,2.931,2.931,0,0,1,.637,1.862,2.77,2.77,0,0,1-.675,1.863,2.17,2.17,0,0,1-1.725.787,15.954,15.954,0,0,1-2.675-.225,16.015,16.015,0,0,0-5.35,0A15.945,15.945,0,0,1,1636.483,109.958Z" transform="translate(-1629.833 -87.833)" fill="#222"/>
</svg>
