<svg id="icon_hatena" xmlns="http://www.w3.org/2000/svg" width="24" height="24" viewBox="0 0 24 24">
  <rect id="長方形_868" data-name="長方形 868" width="24" height="24" fill="#68bfcc" opacity="0"/>
  <circle id="楕円形_80" data-name="楕円形 80" cx="12" cy="12" r="12" fill="#222"/>
  <g id="グループ_650" data-name="グループ 650" transform="translate(-1759.035 -435.433)">
    <path id="パス_885" data-name="パス 885" d="M1770.218,450.505v-4.632h.649a3,3,0,0,0,1.38-.3,2.214,2.214,0,0,0,.912-.84,2.632,2.632,0,0,0,.012-2.508,2.091,2.091,0,0,0-.888-.816,3.026,3.026,0,0,0-1.368-.288,3.116,3.116,0,0,0-1.836.564,3.842,3.842,0,0,0-1.284,1.668l-1.92-1.584a5.331,5.331,0,0,1,2.076-2.388,5.837,5.837,0,0,1,3.107-.828,5.76,5.76,0,0,1,2.677.6,4.463,4.463,0,0,1,1.812,1.668,4.991,4.991,0,0,1,.084,4.764,4.783,4.783,0,0,1-1.6,1.68,6.689,6.689,0,0,1-2.448.936l1.152-1.176-.24,3.48Zm1.128,5.808a1.664,1.664,0,0,1-1.259-.516,1.872,1.872,0,0,1,0-2.532,1.827,1.827,0,0,1,2.52,0,1.878,1.878,0,0,1,0,2.532A1.667,1.667,0,0,1,1771.346,456.313Z" fill="#fff"/>
  </g>
</svg>
