<svg id="icon_rireki" xmlns="http://www.w3.org/2000/svg" width="26" height="26" viewBox="0 0 26 26">
  <g id="レイヤー_4" data-name="レイヤー 4" opacity="0">
    <rect id="長方形_997" data-name="長方形 997" width="26" height="26"/>
  </g>
  <g id="レイヤー_1" data-name="レイヤー 1" transform="translate(0 2.271)">
    <path id="パス_958" data-name="パス 958" d="M2076.08,102.7v-2.146h10.729V102.7Zm0-5.9V94.658h16.809V96.8Zm0-5.9V88.757h16.809V90.9Z" transform="translate(-2076.08 -88.757)"/>
    <path id="パス_959" data-name="パス 959" d="M2099.854,100.271a.813.813,0,0,0-.811-.752h-1.934a3.177,3.177,0,0,0-6.353,0h-1.935a.813.813,0,0,0-.81.752l-.8,10.628a.811.811,0,0,0,.81.873h11.815a.811.811,0,0,0,.81-.873Zm-5.921-2.236a1.557,1.557,0,0,1,1.552,1.484h-3.1A1.557,1.557,0,0,1,2093.934,98.035Zm-5.032,12.112.676-9h1.173V102.2a.813.813,0,0,0,1.625,0v-1.052h3.115V102.2a.813.813,0,0,0,1.625,0v-1.052h1.173l.676,9Z" transform="translate(-2075.152 -88.119)"/>
  </g>
</svg>
