<svg id="icon_instagram" xmlns="http://www.w3.org/2000/svg" viewBox="0 0 24 24">
  <rect id="長方形_914" data-name="長方形 914" width="24" height="24" fill="#68bfcc" opacity="0"/>
  <g id="グループ_729" data-name="グループ 729" transform="translate(-1879.376 -401.645)">
    <path id="パス_914" data-name="パス 914" d="M1903.188,413.645q0,3.429-.079,4.931a10,10,0,0,1-.448,2.61,6.175,6.175,0,0,1-3.744,3.745,10.013,10.013,0,0,1-2.611.448q-1.5.08-4.93.079t-4.931-.079a8.623,8.623,0,0,1-2.61-.5,5.632,5.632,0,0,1-2.294-1.4,6.125,6.125,0,0,1-1.451-2.294,9.956,9.956,0,0,1-.448-2.61q-.079-1.5-.079-4.931t.079-4.93a9.971,9.971,0,0,1,.448-2.611,6.176,6.176,0,0,1,3.745-3.744,10,10,0,0,1,2.61-.448q1.5-.079,4.931-.079t4.93.079a10.013,10.013,0,0,1,2.611.448,6.17,6.17,0,0,1,3.744,3.744,10.83,10.83,0,0,1,.474,2.637Q1903.188,410.219,1903.188,413.645Zm-2.162,4.114q.051-1.16.053-3.27V412.8q0-2.162-.053-3.27a10.624,10.624,0,0,0-.422-2.848,3.812,3.812,0,0,0-2.267-2.267,10.613,10.613,0,0,0-2.848-.422q-1.161-.053-3.27-.053h-1.687q-2.109,0-3.27.053a11.125,11.125,0,0,0-2.847.422,3.808,3.808,0,0,0-2.268,2.267,10.584,10.584,0,0,0-.422,2.848q-.053,1.161-.053,3.27v1.687q0,2.11.053,3.27a11.078,11.078,0,0,0,.422,2.847,3.992,3.992,0,0,0,2.268,2.268,11.079,11.079,0,0,0,2.847.422q1.16.053,3.27.053h1.687q2.163,0,3.27-.053a10.571,10.571,0,0,0,2.848-.422,4,4,0,0,0,2.267-2.268A11.122,11.122,0,0,0,1901.026,417.759Zm-6.618-9.361a6.117,6.117,0,0,1,2.215,2.215,6.037,6.037,0,0,1,0,6.065,6.092,6.092,0,0,1-2.215,2.214,6.03,6.03,0,0,1-6.065,0,6.065,6.065,0,0,1-2.214-2.214,6.03,6.03,0,0,1,0-6.065,6.091,6.091,0,0,1,2.214-2.215,6.036,6.036,0,0,1,6.065,0Zm-.238,8.042a3.944,3.944,0,1,0-2.794,1.161A3.81,3.81,0,0,0,1894.17,416.44Zm4.536-10.125a1.424,1.424,0,0,0-2.426,1,1.441,1.441,0,0,0,1.424,1.424,1.28,1.28,0,0,0,.975-.422,1.643,1.643,0,0,0,.449-1A1.372,1.372,0,0,0,1898.706,406.315Z" fill="#333"/>
  </g>
</svg>
