<svg id="icon_like" xmlns="http://www.w3.org/2000/svg" width="26" height="26" viewBox="0 0 26 26">
  <g id="レイヤー_4" data-name="レイヤー 4" opacity="0">
    <rect id="長方形_842" data-name="長方形 842" width="26" height="26"/>
  </g>
  <g id="レイヤー_2" data-name="レイヤー 2" transform="translate(0.372 1.348)">
    <path id="パス_860" data-name="パス 860" d="M1600.259,254.246a.974.974,0,0,1-.912-.634c-.8-2.122-2.962-3.718-5.254-5.407-2.421-1.784-4.926-3.629-5.923-6.294a8.226,8.226,0,0,1,3.907-10.313,6.273,6.273,0,0,1,5.04-.233,3.179,3.179,0,0,0,6.288,0,6.259,6.259,0,0,1,5.037.233,8.224,8.224,0,0,1,3.908,10.313c-1,2.665-3.5,4.51-5.923,6.294-2.293,1.689-4.459,3.285-5.254,5.407A.976.976,0,0,1,1600.259,254.246Zm-5.327-21.35a4.933,4.933,0,0,0-2.045.476,6.248,6.248,0,0,0-2.891,7.856c.794,2.122,2.961,3.718,5.253,5.407a21.142,21.142,0,0,1,5.01,4.569,21.161,21.161,0,0,1,5.009-4.569c2.295-1.689,4.46-3.285,5.254-5.407a6.246,6.246,0,0,0-2.891-7.856,4.359,4.359,0,0,0-3.5-.2,5.69,5.69,0,0,0-2.966,3.4.974.974,0,0,1-1.812,0,5.69,5.69,0,0,0-2.966-3.4A3.862,3.862,0,0,0,1594.933,232.9Z" transform="translate(-1587.632 -230.942)"/>
  </g>
</svg>
