<svg id="icon_line" xmlns="http://www.w3.org/2000/svg" viewBox="0 0 24 24">
  <rect id="長方形_915" data-name="長方形 915" width="24" height="24" fill="#68bfcc" opacity="0"/>
  <g id="グループ_731" data-name="グループ 731" transform="translate(-1906.958 -401.645)">
    <path id="パス_915" data-name="パス 915" d="M1930.771,406.157v15.029a4.08,4.08,0,0,1-1.266,3.033,4.218,4.218,0,0,1-3.059,1.239h-15.029a4.078,4.078,0,0,1-3.032-1.266,4.209,4.209,0,0,1-1.239-3.058V406.1a4.082,4.082,0,0,1,1.265-3.032,4.214,4.214,0,0,1,3.059-1.239H1926.5a4.082,4.082,0,0,1,3.032,1.266A4.211,4.211,0,0,1,1930.771,406.157Zm-3.27,6.434a5.765,5.765,0,0,0-1.16-3.481,8.266,8.266,0,0,0-3.111-2.531,9.7,9.7,0,0,0-4.3-.949,9.855,9.855,0,0,0-4.324.949,8.191,8.191,0,0,0-3.138,2.531,5.753,5.753,0,0,0-1.16,3.481,6.069,6.069,0,0,0,2.056,4.535,9.053,9.053,0,0,0,5.168,2.373c.422.105.667.255.739.448a3.34,3.34,0,0,1-.053,1.292l-.053.211q-.157.844.765.448a20.341,20.341,0,0,0,3.032-1.872,20.917,20.917,0,0,0,3.744-3.111A6.514,6.514,0,0,0,1927.5,412.591Zm-11.76,1.318h-1.634V410.9c0-.105-.072-.158-.211-.158h-.58a.14.14,0,0,0-.159.158v3.744c0,.071.018.115.053.132a.226.226,0,0,0,.106.027h2.425a.141.141,0,0,0,.159-.159v-.58A.14.14,0,0,0,1915.741,413.909Zm1.424-3.164h-.58a.207.207,0,0,0-.211.158v3.744a.206.206,0,0,0,.211.159h.58a.14.14,0,0,0,.158-.159V410.9A.14.14,0,0,0,1917.165,410.745Zm4.324.158v3.744a.14.14,0,0,1-.158.159h-.58a.212.212,0,0,1-.158-.053l-1.74-2.32v2.214c0,.141-.053.211-.159.211h-.58c-.1,0-.158-.07-.158-.211V410.9a.14.14,0,0,1,.158-.158h.58a.218.218,0,0,1,.159.053l1.687,2.32V410.9a.14.14,0,0,1,.158-.158h.633A.14.14,0,0,1,1921.489,410.9Zm3.164-.158h-2.425a.14.14,0,0,0-.159.158v3.744a.141.141,0,0,0,.159.159h2.425a.141.141,0,0,0,.159-.159v-.58a.14.14,0,0,0-.159-.158h-1.634v-.633h1.634a.14.14,0,0,0,.159-.158v-.633a.14.14,0,0,0-.159-.158h-1.634v-.633h1.634a.14.14,0,0,0,.159-.158V410.9A.14.14,0,0,0,1924.653,410.745Z" fill="#333"/>
  </g>
</svg>
