<svg id="icon_mail" xmlns="http://www.w3.org/2000/svg" width="24" height="24" viewBox="0 0 24 24">
  <rect id="長方形_718" data-name="長方形 718" width="24" height="24" fill="#68bfcc" opacity="0"/>
  <path id="パス_970" data-name="パス 970" d="M1833.2,9.364l-9.31-6.106V15.991h10.679v1.643h-10.679a1.684,1.684,0,0,1-1.643-1.643V1.753a1.573,1.573,0,0,1,.493-1.15,1.577,1.577,0,0,1,1.15-.494h18.62a1.577,1.577,0,0,1,1.15.494,1.572,1.572,0,0,1,.493,1.15v8.488h-1.643V3.258Zm0-1.643,9.309-5.969h-18.62Zm8.05,13.088-1.15-1.15,2-2.026h-5.887V15.991h5.887l-2.026-2.027,1.178-1.15,4,4Zm-17.36-17.551v0Z" transform="translate(-1822.25 2.891)"/>
</svg>
