<svg id="icon_naire" xmlns="http://www.w3.org/2000/svg" width="24" height="24" viewBox="0 0 24 24">
  <g id="レイヤー_4" data-name="レイヤー 4" transform="translate(-1902.687 -54.849)" opacity="0">
    <rect id="長方形_745" data-name="長方形 745" width="24" height="24" transform="translate(1902.687 54.849)" fill="#68bfcc"/>
  </g>
  <g id="レイヤー_1" data-name="レイヤー 1" transform="translate(-1902.687 -54.849)">
    <g id="グループ_441" data-name="グループ 441">
      <path id="パス_833" data-name="パス 833" d="M1924.887,56.649v20.4h-20.4v-20.4h20.4m.8-1.8h-22a1,1,0,0,0-1,1v22a1,1,0,0,0,1,1h22a1,1,0,0,0,1-1v-22a1,1,0,0,0-1-1Z" fill="#222"/>
      <path id="パス_834" data-name="パス 834" d="M1917.969,73.75h2.755l-5.339-13.357h-2.128l-5.4,13.357h2.736l.95-2.489h5.48Zm-5.594-4.655,1.925-5.039,1.907,5.039Z" fill="#222"/>
    </g>
  </g>
</svg>
