<svg id="icon_password" xmlns="http://www.w3.org/2000/svg" width="26" height="26" viewBox="0 0 26 26">
  <g id="レイヤー_4" data-name="レイヤー 4" opacity="0">
    <rect id="長方形_996" data-name="長方形 996" width="26" height="26" transform="translate(0 0)"/>
  </g>
  <g id="レイヤー_1" data-name="レイヤー 1" transform="translate(3.096 0)">
    <path id="パス_957" data-name="パス 957" d="M2047.469,49.135a1.85,1.85,0,0,1-1.857-1.858V33.844a1.85,1.85,0,0,1,1.857-1.857h2.167V29.015a5.881,5.881,0,1,1,11.762,0v2.972h2.167a1.85,1.85,0,0,1,1.858,1.857V47.277a1.85,1.85,0,0,1-1.858,1.858Zm0-1.858h16.1V33.844h-16.1Zm8.048-4.333a2.325,2.325,0,0,0,1.687-.68,2.214,2.214,0,0,0,.7-1.64,2.442,2.442,0,0,0-.7-1.688,2.255,2.255,0,0,0-3.374,0,2.437,2.437,0,0,0-.7,1.688,2.21,2.21,0,0,0,.7,1.64A2.322,2.322,0,0,0,2055.517,42.944Zm-4.024-10.957h8.048V29.015a4.024,4.024,0,1,0-8.048,0Zm-4.024,15.29v0Z" transform="translate(-2045.612 -23.135)"/>
  </g>
</svg>
