<svg xmlns="http://www.w3.org/2000/svg" viewBox="0 0 24 24">
  <g id="icon_photogoods" transform="translate(0)">
    <g id="レイヤー_4" data-name="レイヤー 4" transform="translate(-1929.765 -55.274)" opacity="0">
      <rect id="長方形_746" data-name="長方形 746" width="24" height="24" transform="translate(1929.765 55.274)" fill="#68bfcc"/>
    </g>
    <g id="レイヤー_1" data-name="レイヤー 1" transform="translate(-1929.765 -55.274)">
      <path id="パス_836" data-name="パス 836" d="M1943.787,64.221l-2.962,3.568-2.022-2.436a.5.5,0,0,0-.769,0l-3.6,4.336a.5.5,0,0,0,.384.819h13.892a.5.5,0,0,0,.384-.819l-4.539-5.468A.5.5,0,0,0,1943.787,64.221Z" fill="#222"/>
      <path id="パス_837" data-name="パス 837" d="M1941.765,57.074h0l.192,0a10.458,10.458,0,0,1,10.008,10.6v9.8h-20.4v-10.2a10.213,10.213,0,0,1,10.2-10.2m0-1.8a12,12,0,0,0-12,12v11a1,1,0,0,0,1,1h22a1,1,0,0,0,1-1v-10.6a12.26,12.26,0,0,0-11.775-12.395c-.075,0-.15,0-.225,0Z" fill="#222"/>
    </g>
  </g>
</svg>
