<svg id="icon_scene" xmlns="http://www.w3.org/2000/svg"  viewBox="0 0 18 18">
  <g id="レイヤー_4" data-name="レイヤー 4" opacity="0">
    <rect id="長方形_987" data-name="長方形 987" width="18" height="18" fill="#222"/>
  </g>
  <g id="レイヤー_1" data-name="レイヤー 1" transform="translate(0 0)">
    <path id="パス_944" data-name="パス 944" d="M2056.722,56.078v15.3h-15.3v-15.3h15.3m.507-1.35h-16.314a.843.843,0,0,0-.843.843V71.885a.843.843,0,0,0,.843.843h16.314a.843.843,0,0,0,.843-.843V55.571a.843.843,0,0,0-.843-.843Z" transform="translate(-2040.072 -54.728)" fill="#222"/>
    <path id="パス_945" data-name="パス 945" d="M2049.076,58.4l-2.222,2.676-1.516-1.827a.375.375,0,0,0-.577,0l-2.7,3.252a.375.375,0,0,0,.289.614h10.418a.375.375,0,0,0,.289-.614l-3.4-4.1A.375.375,0,0,0,2049.076,58.4Z" transform="translate(-2040.547 -55.612)" fill="#222"/>
    <path id="パス_946" data-name="パス 946" d="M2057.948,71.534l-4.585-4.28a.226.226,0,0,0-.307,0l-4.585,4.28a.225.225,0,0,0,.154.389h1.4V74.9a.207.207,0,0,0,.206.207h5.962a.207.207,0,0,0,.207-.207v-2.98h1.4A.225.225,0,0,0,2057.948,71.534Z" transform="translate(-2042.154 -57.844)" fill="#222"/>
  </g>
</svg>
