<svg id="グループ_876" data-name="グループ 876" xmlns="http://www.w3.org/2000/svg" xmlns:xlink="http://www.w3.org/1999/xlink" width="56.1" height="42.6" viewBox="0 0 50.457 34.842">
  <defs>
    <clipPath id="clip-path">
      <rect id="長方形_247" data-name="長方形 247" width="56.1" height="42.6" fill="none"/>
    </clipPath>
  </defs>
  <g id="グループ_199" data-name="グループ 199" transform="translate(0 0)" clip-path="url(#clip-path)">
    <path id="パス_231" data-name="パス 231" d="M73.475,31.7H71.543V24.078L65.6,15.4H56.525V31.7H54.593V14.433a.966.966,0,0,1,.966-.966H66.108a.969.969,0,0,1,.8.42l6.4,9.345a.965.965,0,0,1,.169.546Z" transform="translate(-23.019 -5.678)" fill="#222"/>
    <path id="パス_232" data-name="パス 232" d="M27.475,26.99H17.843V25.058h8.666V1.933H2.223V25.058H5.186V26.99H1.257a.965.965,0,0,1-.966-.966V.966A.966.966,0,0,1,1.257,0H27.475a.966.966,0,0,1,.966.966V26.024a.966.966,0,0,1-.966.966" transform="translate(-0.123 0)" fill="#222"/>
    <path id="パス_233" data-name="パス 233" d="M70,29.721,67.62,26.305H63.841V24.373h4.284a.965.965,0,0,1,.793.414l2.666,3.829Z" transform="translate(-26.918 -10.277)" fill="#222"/>
    <path id="パス_234" data-name="パス 234" d="M15.779,51.237a4.461,4.461,0,1,1,4.461-4.461,4.466,4.466,0,0,1-4.461,4.461m0-6.989a2.528,2.528,0,1,0,2.529,2.528,2.531,2.531,0,0,0-2.529-2.528" transform="translate(-4.773 -17.842)" fill="#222"/>
    <path id="パス_235" data-name="パス 235" d="M66.6,51.237a4.461,4.461,0,1,1,4.461-4.461A4.467,4.467,0,0,1,66.6,51.237m0-6.989a2.528,2.528,0,1,0,2.528,2.528A2.532,2.532,0,0,0,66.6,44.248" transform="translate(-26.199 -17.842)" fill="#222"/>
    <rect id="長方形_246" data-name="長方形 246" width="49.49" height="1.933" transform="translate(0.001 32.909)" fill="#222"/>
  </g>
</svg>
