<svg id="icon_tel" xmlns="http://www.w3.org/2000/svg" width="24" height="24" viewBox="0 0 24 24">
  <rect id="長方形_717" data-name="長方形 717" width="24" height="24" fill="#68bfcc" opacity="0"/>
  <path id="パス_969" data-name="パス 969" d="M264.848,269.581a14.99,14.99,0,0,1-6.737-1.667,23.119,23.119,0,0,1-10.347-10.348,14.976,14.976,0,0,1-1.667-6.736,1.232,1.232,0,0,1,1.25-1.25h3.888a.983.983,0,0,1,.681.263,1.232,1.232,0,0,1,.375.708l.75,3.5a2,2,0,0,1-.014.708,1.065,1.065,0,0,1-.292.542l-2.777,2.806a23.044,23.044,0,0,0,3.486,4.5,19.3,19.3,0,0,0,4.375,3.25l2.639-2.723a1.537,1.537,0,0,1,.639-.43,1.279,1.279,0,0,1,.722-.042l3.306.722a1.215,1.215,0,0,1,.973,1.195v3.75a1.235,1.235,0,0,1-1.25,1.25Z" transform="translate(-244.098 -247.581)"/>
</svg>
