<svg id="icon_twitter2" xmlns="http://www.w3.org/2000/svg" viewBox="0 0 24 24">
  <rect id="長方形_916" data-name="長方形 916" width="24" height="24" fill="#68bfcc" opacity="0"/>
  <g id="グループ_733" data-name="グループ 733" transform="translate(-1825.345 -401.036)">
    <path id="パス_916" data-name="パス 916" d="M1846.86,408.161a2.8,2.8,0,0,1,.047.609,13.906,13.906,0,0,1-1.64,6.516,13.392,13.392,0,0,1-4.735,5.3,14.188,14.188,0,0,1-15.187,0q.515.048,1.172.047a9.754,9.754,0,0,0,6.14-2.11,4.57,4.57,0,0,1-2.883-.961,4.885,4.885,0,0,1-1.711-2.414,8.747,8.747,0,0,0,.891.047,6.31,6.31,0,0,0,1.313-.14,4.957,4.957,0,0,1-2.813-1.735,4.717,4.717,0,0,1-1.125-3.093v-.094a4.632,4.632,0,0,0,2.2.656,5.461,5.461,0,0,1-1.594-1.781,4.775,4.775,0,0,1,.094-4.828,13.772,13.772,0,0,0,10.125,5.156,6.78,6.78,0,0,1-.094-1.125,4.963,4.963,0,0,1,2.438-4.266,4.757,4.757,0,0,1,2.437-.656,4.7,4.7,0,0,1,1.993.422,5.565,5.565,0,0,1,1.617,1.125,9.974,9.974,0,0,0,3.14-1.172,4.883,4.883,0,0,1-2.156,2.719,10.549,10.549,0,0,0,2.813-.8A10.831,10.831,0,0,1,1846.86,408.161Z" fill="#333"/>
  </g>
</svg>
