<svg id="グループ_875" data-name="グループ 875" xmlns="http://www.w3.org/2000/svg" width="190" height="48.466" viewBox="0 0 190 48.466">
  <path id="パス_925" data-name="パス 925" d="M339.518,65.565c.031-.275.056-.563.072-.864s.024-.624.024-.975a28.944,28.944,0,0,0-.193-3.191c-.066-.591-.413-2.539-.513-3.13-.012-.109-.115-.751-.329-1.681-.264-1.149-.555-2.265-.893-3.342a12.33,12.33,0,0,0-.639-1.726h0c-.167-.394-.337-.778-.521-1.126-.145-.276-.294-.527-.444-.766a2.219,2.219,0,0,1-1.205.248,3.844,3.844,0,0,1,.708.8,10.92,10.92,0,0,1,.6,1.047h0a13.294,13.294,0,0,1,.94,2.239c.452,1.326,1.044,4.316,1.044,4.316h0c.006.033.014.062.019.095a50.223,50.223,0,0,1,.648,5.995v.562a3.64,3.64,0,0,1-.049.562C338.122,65.673,339.176,65.978,339.518,65.565Z" transform="translate(-250.906 -23.512)" fill="#051e2b"/>
  <path id="パス_926" data-name="パス 926" d="M337.118,49.413a14.909,14.909,0,0,1-14.631-15.172A15.354,15.354,0,0,1,327.974,22.4a16.487,16.487,0,0,0-10.029,15.318c0,9.1,7.116,16.481,15.895,16.481a15.936,15.936,0,0,0,14.905-10.752A14.431,14.431,0,0,1,337.118,49.413Z" transform="translate(-249.613 -22.4)" fill="#149cb8"/>
  <path id="パス_927" data-name="パス 927" d="M398.652,32.736h-9.261V55.155h3.242v-8.48h6.019a6.974,6.974,0,0,0,0-13.939Zm0,10.577h-6.019V36.1h6.019a3.61,3.61,0,0,1,0,7.215Z" transform="translate(-255.066 -22.836)" fill="#051e2b"/>
  <path id="パス_928" data-name="パス 928" d="M425.747,36.1V32.736H411.814v22.79h13.934V52.164H415.056V45.439h8.39V42.077h-8.39V36.1Z" transform="translate(-256.778 -22.836)" fill="#051e2b"/>
  <path id="パス_929" data-name="パス 929" d="M448.359,32.736H432.53V36.1h6.179V55.155h3.242V36.1h6.407Z" transform="translate(-258.359 -22.836)" fill="#051e2b"/>
  <path id="パス_930" data-name="パス 930" d="M293.638,54.755c-8.372,0-15.184-7.063-15.184-15.744s6.812-15.745,15.184-15.745,15.183,7.063,15.183,15.745S302.01,54.755,293.638,54.755Zm0-27.456A11.718,11.718,0,1,0,304.931,39.01,11.521,11.521,0,0,0,293.638,27.3Z" transform="translate(-246.599 -22.436)" fill="#051e2b"/>
  <g id="グループ_809" data-name="グループ 809" transform="translate(0 0.829)">
    <path id="パス_931" data-name="パス 931" d="M259.15,54.755c-8.372,0-15.183-7.063-15.183-15.744s6.811-15.745,15.183-15.745A14.808,14.808,0,0,1,270.005,28l-2.781,2.821A11.016,11.016,0,0,0,259.15,27.3a11.718,11.718,0,0,0,0,23.421,11.016,11.016,0,0,0,8.074-3.526l2.781,2.821A14.808,14.808,0,0,1,259.15,54.755Z" transform="translate(-243.967 -23.265)" fill="#051e2b"/>
  </g>
  <path id="パス_932" data-name="パス 932" d="M363.05,54.755c-8.372,0-15.184-7.063-15.184-15.744s6.812-15.745,15.184-15.745,15.184,7.063,15.184,15.745S371.422,54.755,363.05,54.755Zm0-27.456A11.718,11.718,0,1,0,374.343,39.01,11.52,11.52,0,0,0,363.05,27.3Z" transform="translate(-251.897 -22.436)" fill="#051e2b"/>
  <path id="パス_933" data-name="パス 933" d="M323.9,69.215a4.181,4.181,0,0,1-1.641,1.858,4.393,4.393,0,0,1-2.222.582,6.083,6.083,0,0,1-1.086-.094q-.507-.095-1.039-.245a2.873,2.873,0,0,1-2.511,1.238,4.948,4.948,0,0,1-1.908-.411,5.726,5.726,0,0,1-1.81-1.221,6.191,6.191,0,0,1-1.328-1.97,6.535,6.535,0,0,1-.506-2.629,5.459,5.459,0,0,1,.531-2.458,2.488,2.488,0,0,1,1.641-1.37,1.315,1.315,0,0,1,.338-.038c.258,0,.386.076.386.225,0,.126-.08.214-.241.262a2.479,2.479,0,0,0-1.183,1.2,4.172,4.172,0,0,0-.362,1.765,4.872,4.872,0,0,0,.483,2.159A6.389,6.389,0,0,0,312.65,69.8a5.763,5.763,0,0,0,1.569,1.145,3.6,3.6,0,0,0,1.569.413,1.613,1.613,0,0,0,1.159-.413,6.631,6.631,0,0,1-1.859-1.352,8.962,8.962,0,0,1-1.328-1.744A9.152,9.152,0,0,1,312.939,66a5.707,5.707,0,0,1-.289-1.708,2.454,2.454,0,0,1,.338-1.351A1.125,1.125,0,0,1,314,62.419a2.526,2.526,0,0,1,1.52.619A7.046,7.046,0,0,1,317,64.654a9.925,9.925,0,0,1,1.11,2.178,6.634,6.634,0,0,1,.435,2.307,4.308,4.308,0,0,1-.12,1.07,4.026,4.026,0,0,1-.315.845,5.423,5.423,0,0,0,1.788.3,3.474,3.474,0,0,0,1.882-.581,4.774,4.774,0,0,0,1.594-1.858c0-.026.016-.038.048-.038h.145A.3.3,0,0,1,323.9,69.215Zm-6.471.226a6.621,6.621,0,0,0-.266-1.747,8.139,8.139,0,0,0-.724-1.782,6.388,6.388,0,0,0-1.014-1.389,1.608,1.608,0,0,0-1.135-.564c-.418,0-.627.352-.627,1.052a4.986,4.986,0,0,0,.218,1.333,6.719,6.719,0,0,0,.675,1.557,9.327,9.327,0,0,0,1.111,1.52,5.84,5.84,0,0,0,1.52,1.22A2.693,2.693,0,0,0,317.431,69.441Z" transform="translate(-248.995 -24.088)" fill="#051e2b"/>
  <path id="パス_934" data-name="パス 934" d="M339.238,69.183q-1.642,3.04-4.056,3.04a5.793,5.793,0,0,1-4.081-2.158,17.962,17.962,0,0,1-3.55-6.251q-.194.113-.41,1.013t-.411,2.046q-.194,1.147-.314,2.309t-.12,1.764c0,.2-.153.381-.459.545a1.835,1.835,0,0,1-.846.243c-.257,0-.386-.075-.386-.226a21.187,21.187,0,0,0-.555-2.927,24.444,24.444,0,0,0-.8-2.478q-.435-1.128-.87-2.009t-.772-1.558a.932.932,0,0,1,.386-.6,1.038,1.038,0,0,1,.483-.262q.435,0,.893.9a13.119,13.119,0,0,1,.821,2.065q.362,1.164.652,2.253t.386,1.5c.1.35.209.525.339.525l.1-.262q.146-.6.313-1.521t.363-1.784c.127-.575.249-1.088.362-1.538a1.766,1.766,0,0,1,.313-.788,3.09,3.09,0,0,1,.557-.338,1.5,1.5,0,0,1,.651-.15c.417,0,.643.164.676.488a9.05,9.05,0,0,0,.8,2.515,13.725,13.725,0,0,0,1.617,2.684,11.3,11.3,0,0,0,2.124,2.14,3.815,3.815,0,0,0,2.318.882,2.622,2.622,0,0,0,1.569-.544,4.845,4.845,0,0,0,1.376-1.82c0-.026.016-.038.049-.038h.144A.3.3,0,0,1,339.238,69.183Z" transform="translate(-249.893 -24.057)" fill="#051e2b"/>
  <path id="パス_935" data-name="パス 935" d="M349.649,60.113a1.354,1.354,0,0,1-.266.863.848.848,0,0,1-.7.338,1.32,1.32,0,0,1-.966-.45,1.514,1.514,0,0,1-.434-1.09,1.414,1.414,0,0,1,.313-.938.948.948,0,0,1,.749-.375,1.11,1.11,0,0,1,.942.507A1.93,1.93,0,0,1,349.649,60.113Zm10.045,8.934a5.327,5.327,0,0,1-1.859,2.2,4.06,4.06,0,0,1-2.1.62,5.031,5.031,0,0,1-2.97-.938,9.327,9.327,0,0,1-2.246-2.234,11.515,11.515,0,0,1-1.423-2.667,6.759,6.759,0,0,1-.508-2.234q0-.976.579-.976a1.219,1.219,0,0,1,.919.413,3.751,3.751,0,0,1,.675,1.09,7.615,7.615,0,0,1,.459,1.538,12.681,12.681,0,0,1,.217,1.727,14.658,14.658,0,0,0,1.159,1.239,10.294,10.294,0,0,0,1.28,1.051,7.177,7.177,0,0,0,1.327.733,3.385,3.385,0,0,0,1.3.281,2.5,2.5,0,0,0,1.448-.468,3.907,3.907,0,0,0,1.207-1.67c0-.026.016-.038.049-.038h.144A.3.3,0,0,1,359.694,69.048Zm-8.742-2.1a7.464,7.464,0,0,0-.675-2.233c-.291-.538-.515-.807-.677-.807l-.1.037a3.28,3.28,0,0,0,.386,1.333A9.11,9.11,0,0,0,350.953,66.944Z" transform="translate(-251.853 -23.921)" fill="#051e2b"/>
  <path id="パス_936" data-name="パス 936" d="M374.895,69.183q-1.64,3.04-4.055,3.04a5.8,5.8,0,0,1-4.082-2.158,17.946,17.946,0,0,1-3.549-6.251c-.13.076-.266.414-.411,1.013s-.283,1.283-.41,2.046-.235,1.533-.315,2.309-.12,1.364-.12,1.764c0,.2-.153.381-.459.545a1.828,1.828,0,0,1-.845.243c-.258,0-.386-.075-.386-.226a21.472,21.472,0,0,0-.555-2.927,24.67,24.67,0,0,0-.8-2.478q-.434-1.128-.87-2.009t-.772-1.558a.939.939,0,0,1,.386-.6,1.039,1.039,0,0,1,.484-.262q.435,0,.892.9a12.953,12.953,0,0,1,.821,2.065q.363,1.164.652,2.253t.386,1.5c.1.35.21.525.339.525l.1-.262c.1-.4.2-.907.314-1.521s.233-1.208.363-1.784.248-1.088.361-1.538a1.775,1.775,0,0,1,.314-.788,3.115,3.115,0,0,1,.556-.338,1.5,1.5,0,0,1,.651-.15c.417,0,.644.164.676.488a9.05,9.05,0,0,0,.8,2.515,13.731,13.731,0,0,0,1.618,2.684,11.273,11.273,0,0,0,2.124,2.14,3.813,3.813,0,0,0,2.318.882,2.624,2.624,0,0,0,1.569-.544,4.865,4.865,0,0,0,1.376-1.82c0-.026.016-.038.048-.038h.145A.3.3,0,0,1,374.895,69.183Z" transform="translate(-252.615 -24.057)" fill="#051e2b"/>
  <path id="パス_937" data-name="パス 937" d="M385.444,69.223a6.183,6.183,0,0,1-2.076,2.4,4.537,4.537,0,0,1-2.414.714,5.272,5.272,0,0,1-2.294-.544,7.074,7.074,0,0,1-2.028-1.464,7.651,7.651,0,0,1-1.448-2.1,5.708,5.708,0,0,1-.556-2.458,4.118,4.118,0,0,1,.579-2.235,1.838,1.838,0,0,1,1.642-.919,1.509,1.509,0,0,1,1.376.64,2.781,2.781,0,0,1,.411,1.538,5.522,5.522,0,0,1-.434,2.083,3.673,3.673,0,0,1-1.207,1.633,7.65,7.65,0,0,0,2.148,2.009,4.727,4.727,0,0,0,2.536.806,3.174,3.174,0,0,0,1.786-.543,4.478,4.478,0,0,0,1.449-1.858c0-.026.016-.038.048-.038h.145A.3.3,0,0,1,385.444,69.223Zm-7.776-3.6a2.457,2.457,0,0,0-.313-1.277,1.071,1.071,0,0,0-.99-.525.577.577,0,0,0-.556.337,2.028,2.028,0,0,0-.169.9,5.512,5.512,0,0,0,1.063,3.078,2.6,2.6,0,0,0,.7-1.089A4.048,4.048,0,0,0,377.669,65.619Z" transform="translate(-253.94 -24.097)" fill="#051e2b"/>
  <path id="パス_938" data-name="パス 938" d="M350.975,67.914s-2.669-3.887-1.689-4.413,1.824,2.032,1.857,2.662A10.187,10.187,0,0,1,350.975,67.914Z" transform="translate(-251.989 -24.131)" fill="#051e2b"/>
  <path id="パス_939" data-name="パス 939" d="M349.732,68.293h-.146c-.031,0-.047.012-.047.038a4.79,4.79,0,0,1-1.424,1.839,2.99,2.99,0,0,1-1.762.562,5.741,5.741,0,0,1-3.5-1.482,19.847,19.847,0,0,1-3.549-3.773c-.261-.31-.587-.738-.725-.94a36.707,36.707,0,0,1-4.08-7.959c-.422-1.2-.866-2.726-1.156-3.815a11.49,11.49,0,0,1-.434-2.91q0-1.425.579-1.426a2.359,2.359,0,0,1,1.855,1.257c.3-.091.615-.2.934-.308a8.582,8.582,0,0,0-1.339-1.924,2.134,2.134,0,0,0-1.545-.751,1.1,1.1,0,0,0-1.014.827,6.1,6.1,0,0,0-.338,2.252,18.945,18.945,0,0,0,.58,4.5,50.266,50.266,0,0,0,1.807,6.013,28.511,28.511,0,0,0,2.294,4.355,24.677,24.677,0,0,0,2.8,3.622,13.913,13.913,0,0,0,3.042,2.478,6.051,6.051,0,0,0,3.068.92,4.307,4.307,0,0,0,2.366-.714,6.9,6.9,0,0,0,2.077-2.327A.3.3,0,0,0,349.732,68.293Z" transform="translate(-250.689 -23.425)" fill="#051e2b"/>
</svg>
