<svg xmlns="http://www.w3.org/2000/svg" xmlns:xlink="http://www.w3.org/1999/xlink" width="190" height="51.574" viewBox="0 0 190 51.574">
  <defs>
    <clipPath id="clip-path">
      <rect id="長方形_238" data-name="長方形 238" width="190" height="51.574"/>
    </clipPath>
  </defs>
  <g id="LOGO_葬儀L" opacity="0.9">
    <g id="グループ_185" data-name="グループ 185" clip-path="url(#clip-path)">
      <path id="パス_212" data-name="パス 212" d="M146.091,26.014A14.608,14.608,0,0,1,136.96,0,15.872,15.872,0,1,0,157.7,20.269a14.587,14.587,0,0,1-11.611,5.746" transform="translate(-58.444 0)"/>
      <path id="パス_213" data-name="パス 213" d="M252.311,39.259h-3.237V17.669h9.248a6.711,6.711,0,0,1,0,13.423h-6.011Zm0-11.4h6.011a3.474,3.474,0,0,0,0-6.948h-6.011Z" transform="translate(-114.671 -8.135)"/>
      <path id="パス_214" data-name="パス 214" d="M301.318,39.616H287.4V17.669h13.916v3.238H290.639V36.378h10.679Z" transform="translate(-132.319 -8.135)"/>
      <rect id="長方形_235" data-name="長方形 235" width="9.745" height="3.238" transform="translate(156.955 18.529)"/>
      <rect id="長方形_236" data-name="長方形 236" width="15.807" height="3.238" transform="translate(174.193 9.534)"/>
      <rect id="長方形_237" data-name="長方形 237" width="3.238" height="19.807" transform="translate(180.364 11.317)"/>
      <path id="パス_215" data-name="パス 215" d="M74.115,31.8A15.163,15.163,0,1,1,89.279,16.641,15.18,15.18,0,0,1,74.115,31.8m0-26.441A11.278,11.278,0,1,0,85.393,16.641,11.29,11.29,0,0,0,74.115,5.364" transform="translate(-27.142 -0.681)"/>
      <path id="パス_216" data-name="パス 216" d="M15.163,31.8A15.163,15.163,0,1,1,26,6.043L23.225,8.759a11.277,11.277,0,1,0-8.062,19.16,11.191,11.191,0,0,0,8.062-3.4L26,27.241A15.048,15.048,0,0,1,15.163,31.8" transform="translate(0 -0.681)"/>
      <path id="パス_217" data-name="パス 217" d="M193.254,31.8a15.163,15.163,0,1,1,15.164-15.163A15.18,15.18,0,0,1,193.254,31.8m0-26.441a11.278,11.278,0,1,0,11.277,11.278A11.29,11.29,0,0,0,193.254,5.364" transform="translate(-81.992 -0.681)"/>
      <path id="パス_218" data-name="パス 218" d="M36.1,84.109a.507.507,0,0,1-.242-.054,18.137,18.137,0,0,1-5.005-3.386c-.62-.566-1.119-1.012-1.416-1.012-.472,0-.755.3-1.363.972a19.28,19.28,0,0,1-1.483,1.47,1.4,1.4,0,0,1-1.538.2.251.251,0,0,1-.108-.35.235.235,0,0,1,.175-.122,2.632,2.632,0,0,0,.917-.58c.539-.459.972-.85,1.309-1.174.822-.753,1.309-1.213,2.091-1.213.5,0,1.052.46,1.875,1.147a19.643,19.643,0,0,0,4.722,3.129.488.488,0,1,1,.067.972m-2.6-4.95a1.376,1.376,0,1,1,1.389-1.377A1.383,1.383,0,0,1,33.5,79.159m0-2.186a.809.809,0,1,0,.823.809.811.811,0,0,0-.823-.809" transform="translate(-11.471 -35.177)"/>
      <path id="パス_219" data-name="パス 219" d="M54,84.461a.356.356,0,0,1-.352-.405,4.992,4.992,0,0,0-.579-1.348.2.2,0,0,1,.284-.256,2.451,2.451,0,0,1,1,1.6.356.356,0,0,1-.351.405M59.8,83a2.222,2.222,0,0,0-.135.352,7.3,7.3,0,0,1-4.9,4.99.183.183,0,0,1-.243-.094A.193.193,0,0,1,54.633,88a7.622,7.622,0,0,0,4.384-4.856,2.663,2.663,0,0,0,.081-.27c.068-.229.135-.46.149-.54a.58.58,0,0,0-.216-.419.2.2,0,0,1-.014-.283.188.188,0,0,1,.243-.027,2.043,2.043,0,0,1,.675.715c.08.189-.014.417-.135.687m-3.251.5a.351.351,0,0,1-.351-.417,4.645,4.645,0,0,0-.567-1.268.205.205,0,0,1,.013-.229.191.191,0,0,1,.27-.04,2.233,2.233,0,0,1,.971,1.525.349.349,0,0,1-.337.431" transform="translate(-24.419 -37.527)"/>
      <path id="パス_220" data-name="パス 220" d="M79.349,80.961a.5.5,0,0,1-.444-.271,35.721,35.721,0,0,0-3.386-2.009c-.013,1,.013,2,.026,2.994.028,1.107.028,2.078,0,2.981a.546.546,0,0,1,.043.216.491.491,0,0,1-.5.5.5.5,0,0,1-.5-.5c0-.176.012-.417.012-.553.04-1.349.082-3.048.094-5.139.028-2.833.013-2.212.028-3.331a1.979,1.979,0,0,0-.188-1.066.258.258,0,0,1,.026-.365.228.228,0,0,1,.282-.04,1.314,1.314,0,0,1,.837,1.24c-.039.3-.107,1.444-.148,2.5a14.793,14.793,0,0,1,4.128,1.969.531.531,0,0,1,.173.378.486.486,0,0,1-.485.5" transform="translate(-34.285 -34.228)"/>
      <path id="パス_221" data-name="パス 221" d="M97.252,85.583a.264.264,0,0,1-.31-.256.259.259,0,0,1,.2-.256c2.764-.675,4.546-2.4,4.546-4.384a3.686,3.686,0,0,0-3.737-3.872,13.062,13.062,0,0,1-2.5,6.758,1.612,1.612,0,0,1-1.145.635,1.776,1.776,0,0,1-1.324-.607,3.352,3.352,0,0,1-.7-2.7,5.274,5.274,0,0,1,5.287-4.722,5.441,5.441,0,0,1,3.751,1.294,4.115,4.115,0,0,1,1.348,3.051c0,2.657-1.874,4.4-5.422,5.057m-4.114-4.492v.216a2.457,2.457,0,0,0,.553,1.711.87.87,0,0,0,.607.325c.322,0,1.012-.674,1.835-2.535a16.376,16.376,0,0,0,1.227-3.993,4.527,4.527,0,0,0-4.221,4.276" transform="translate(-42.48 -35.074)"/>
      <path id="パス_222" data-name="パス 222" d="M122.636,75.487h-2.009c.015.471-.015,1.55-.068,2.13h1.377a.445.445,0,0,1,.781.325l-.081,1.335a18.566,18.566,0,0,1-.364,3.264,2.12,2.12,0,0,1-1.592,1.781.514.514,0,0,1-.527-.809l-.31-.043a.209.209,0,0,1-.2-.228.222.222,0,0,1,.242-.2l1.121.12c.51-.565.608-1.9.728-3.938l.066-1.079h-1.294c-.271,2.954-1.147,5.032-2.686,6.206a.215.215,0,0,1-.3-.31c1.7-1.957,2.185-5.491,2.158-8.552h-1.848a.278.278,0,0,1-.283-.284.287.287,0,0,1,.283-.3h1.97l.012-1.93a.479.479,0,0,1,.471-.472.469.469,0,0,1,.461.472v1.942h1.387a.514.514,0,0,1,1.025.054.523.523,0,0,1-.525.514m6.218.012H124.66a9.462,9.462,0,0,1-1.377,1.364c-.256.216-.5-.068-.352-.27a27.788,27.788,0,0,0,2.212-3.671.577.577,0,0,1,1.067.082.57.57,0,0,1-.364.688,11.693,11.693,0,0,1-.769,1.254h3.333a.5.5,0,0,1,.513-.471.51.51,0,0,1,.51.513.52.52,0,0,1-.579.511m.486,8.391a2.073,2.073,0,0,1-.3-.176.506.506,0,0,1-.852.35,8.4,8.4,0,0,1-2.588-6.11c-.217.067-.447.134-.688.215l.015,6.138a.475.475,0,0,1-.461.459.461.461,0,0,1-.444-.459V78.427c-.176.055-.364.109-.54.149-.325.082-.459-.3-.149-.419,1.04-.432,2.927-1.254,3.75-1.672a.575.575,0,0,1,.715-.431.585.585,0,0,1-.015,1.119c-.579.228-1.172.432-1.753.634a7.94,7.94,0,0,0,.527,2.173c.62-.472,1.16-.9,1.768-1.4a.591.591,0,0,1,1,.431.6.6,0,0,1-.767.581c-.486.242-1.458.659-1.821.822a6.71,6.71,0,0,0,2.817,3.1.217.217,0,0,1-.215.377" transform="translate(-54.081 -33.381)"/>
      <path id="パス_223" data-name="パス 223" d="M156.083,83.979h-10.82a.31.31,0,0,1,0-.62h5.518c.513-1.5,1.47-4.856,1.9-6.732a.677.677,0,0,1,1.255-.175.685.685,0,0,1-.283.9,42.188,42.188,0,0,1-2.39,6.017h4.265a.566.566,0,0,1,1.13.04.581.581,0,0,1-.576.566m-.825-8.552h-9.294a.31.31,0,0,1-.3-.31.3.3,0,0,1,.3-.3h4.385V73.066a.485.485,0,0,1,.486-.485.5.5,0,0,1,.5.485v1.768h3.386a.529.529,0,0,1,.537-.487.542.542,0,0,1,.54.541.533.533,0,0,1-.54.54m-6.448,6.744a.577.577,0,0,1-.107-.809,18.563,18.563,0,0,0-1.255-4.534.211.211,0,1,1,.364-.215c1.16,1.511,2.131,3.521,1.931,5.139a.583.583,0,0,1-.933.419" transform="translate(-66.742 -33.416)"/>
      <path id="パス_224" data-name="パス 224" d="M182.472,83.333c-1.025,1.012-3.02,1.523-5.8,1.471a.256.256,0,0,1,0-.513c3.833-.067,5.574-1.416,5.574-2.644a1.629,1.629,0,0,0-1.755-1.754c-1.509,0-2.629,1.417-3.223,2.172-.286.352-.459.621-.972.42-.447-.176-.635-.568-.581-1.243a17.334,17.334,0,0,1,.566-2.413c.176-.662.381-1.364.527-2.024-.244.013-.486.026-.742.026a2.452,2.452,0,0,1-2.119-.8.272.272,0,0,1,0-.364.265.265,0,0,1,.381,0c.117.135.347.352,1.8.352.31,0,.581-.013.85-.027.056-.35.083-.688.107-1.039.029-.566.042-.756-.4-1.094a.249.249,0,0,1-.054-.364.27.27,0,0,1,.325-.066c.686.323,1.1.43,1.1,1.132a6.2,6.2,0,0,1-.188,1.322,8.541,8.541,0,0,0,1.4-.336,5.72,5.72,0,0,0,1.1-.392.487.487,0,0,1,.8-.015.481.481,0,0,1,0,.58c-.083.135-.364.31-1.455.608a14.1,14.1,0,0,1-2.053.391l-.322,1.174a17.4,17.4,0,0,0-.676,3.036v.35a6.091,6.091,0,0,1,4.033-2.1,2.381,2.381,0,0,1,2.5,2.468,2.28,2.28,0,0,1-.73,1.686" transform="translate(-80.051 -33.795)"/>
      <path id="パス_225" data-name="パス 225" d="M207.834,79.614c-.432.161-.889.323-1.333.5v.31c0,.364-.029.958,0,1.228,0,.027.012.066.012.109a.439.439,0,0,1-.876.026c-.015-.2-.029-.7-.015-1.309-1.267.566-2.292,1.24-2.292,2.1,0,.7.959,1.025,3.105,1.025a11.085,11.085,0,0,0,2.3-.283.432.432,0,0,1,.254-.081.44.44,0,0,1,.447.444.46.46,0,0,1-.349.446,10.845,10.845,0,0,1-2.656.338c-.959,0-3.914,0-3.914-1.836,0-1.24,1.455-2.172,3.1-2.926-.039-1.215-.325-1.646-1.038-1.646a3.56,3.56,0,0,0-1.523.89,8.457,8.457,0,0,1-1.067.972.416.416,0,0,1-.349.2.42.42,0,0,1-.42-.417.384.384,0,0,1,.161-.323c.149-.149.5-.46.742-.648a7.679,7.679,0,0,0,1.917-2.994c-.283,0-.513.012-.659,0a7.547,7.547,0,0,1-1.836-.417.257.257,0,0,1-.164-.338.285.285,0,0,1,.271-.176c.554.054,1.687.122,2.078.122h.566a11.236,11.236,0,0,0,.31-1.322.844.844,0,0,0-.31-.526.289.289,0,0,1-.093-.2.259.259,0,0,1,.066-.162.269.269,0,0,1,.256-.093c.176.054.969.282.969.781a11.076,11.076,0,0,1-.349,1.471,4.072,4.072,0,0,0,1.189-.256.478.478,0,0,1,.4-.244.469.469,0,0,1,.461.472.492.492,0,0,1-.205.392,5.194,5.194,0,0,1-2.1.458,10.49,10.49,0,0,1-.85,1.93,2.007,2.007,0,0,1,.54-.094,1.818,1.818,0,0,1,1.877,1.793c.349-.148.713-.3,1.052-.431a7.793,7.793,0,0,0,2.451-1.255c.1-.216-.188-.446-.361-.5a.256.256,0,0,1-.178-.325.276.276,0,0,1,.337-.176c.381.137,1.362.662,1.162,1.268-.217.676-1.484,1.134-3.091,1.7" transform="translate(-92.642 -33.436)"/>
      <path id="パス_226" data-name="パス 226" d="M236.272,83.193a2.652,2.652,0,0,1-2.065.621,3.259,3.259,0,0,1-2.334-1.537.267.267,0,0,1,.083-.365.26.26,0,0,1,.352.081,2.548,2.548,0,0,0,1.821.958,1.918,1.918,0,0,0,1.44-.458,1.735,1.735,0,0,0,.488-1.3c0-1.309-1.294-1.577-2.373-1.577a6.542,6.542,0,0,0-3.013.769l.029.876c.029.728.054,1.294.054,1.605,0,.984-.254,1.456-.85,1.578a.414.414,0,0,1-.337-.054.571.571,0,0,1-.215-.419.893.893,0,0,0-.107-.352,3.581,3.581,0,0,0-1.294-1.268l-.405.365a.632.632,0,0,1-.757.04.534.534,0,0,1-.19-.675.815.815,0,0,1,.718-.43A18.074,18.074,0,0,1,229.89,80c-.01-.93-.01-1.862-.01-2.792a7.807,7.807,0,0,1-1.133.107,3.233,3.233,0,0,1-1.538-.5.258.258,0,0,1-.068-.364.244.244,0,0,1,.269-.109,7.1,7.1,0,0,0,1.323.148,7.486,7.486,0,0,0,1.147-.107c.01-1.471.01-1.066.024-2.118a.726.726,0,0,0-.229-.635.255.255,0,0,1,.083-.5c.361,0,1.143.54,1.143,1.106a3.338,3.338,0,0,1-.063.54,10.424,10.424,0,0,0-.176,1.442,4.4,4.4,0,0,0,1.172-.43.449.449,0,0,1,.42-.271.472.472,0,0,1,.474.472.507.507,0,0,1-.122.337,4.559,4.559,0,0,1-1.987.756c-.01.85.015,1.7.044,2.55a8.816,8.816,0,0,1,3.223-.8,3.454,3.454,0,0,1,2.524.809,2.147,2.147,0,0,1,.645,1.55,2.616,2.616,0,0,1-.781,2m-6.367-2.345a15.712,15.712,0,0,0-1.523,1.132,11.217,11.217,0,0,1,1.484,1.079,1.463,1.463,0,0,0,.054-.431c.015-.271-.015-1.5-.015-1.78m7.646-3.427a.462.462,0,0,1-.454-.378,3.536,3.536,0,0,0-2.661-1,.26.26,0,0,1-.254-.229.257.257,0,0,1,.229-.283c1.265-.149,2.847-.121,3.55,1.2a.455.455,0,0,1-.41.688" transform="translate(-104.303 -33.67)"/>
      <path id="パス_227" data-name="パス 227" d="M264.042,80.484h-4.858v3.953a.607.607,0,0,1-.645.647.656.656,0,0,1-.566-.97h-.635a.216.216,0,0,1-.22-.216.228.228,0,0,1,.22-.228h.874V80.484h-5.249a.273.273,0,0,1-.278-.283.284.284,0,0,1,.278-.3h5.249V77.491h-4.263a.278.278,0,0,1-.283-.284.288.288,0,0,1,.283-.3h4.263V74.563c-1.216.148-2.642.3-4.18.4a.218.218,0,0,1-.054-.432c2.656-.459,5.742-1.052,7.646-1.471a.591.591,0,0,1,1.094.271.61.61,0,0,1-.566.621c-.649.12-2.09.35-2.969.47v2.5h3.32a.542.542,0,0,1,.537-.513.53.53,0,0,1,.527.54.55.55,0,0,1-.542.541h-3.843v2.428h4.3a.566.566,0,1,1,.557.565" transform="translate(-116.333 -33.509)"/>
      <path id="パス_228" data-name="パス 228" d="M282.69,73.584a16.716,16.716,0,0,1-1.333,2.509.484.484,0,0,1,.322.417v7.838a.457.457,0,0,1-.913,0V76.957a15.282,15.282,0,0,1-1.475,1.686.217.217,0,0,1-.327-.283,29.634,29.634,0,0,0,3-5.544.579.579,0,0,1,1.079,0,.565.565,0,0,1-.352.769m8.3,4.249h-3.652a45.8,45.8,0,0,1-2.095,4.869c1.416-.162,2.7-.364,4.141-.608a14.022,14.022,0,0,0-.986-1.591.22.22,0,0,1,.3-.311c1.709,1.228,2.544,2.51,2.534,3.453a.575.575,0,1,1-1.138-.12,8.387,8.387,0,0,0-.5-1.012,50.383,50.383,0,0,1-5.381,1.334.613.613,0,1,1-.527-.985c.244-.027.688-.067.894-.093.537-1.431,1.128-3.333,1.567-4.924h-3.184a.31.31,0,0,1,0-.62h7.515a.517.517,0,0,1,.508-.432.5.5,0,0,1,.5.513.512.512,0,0,1-.5.526m-1.025-3.3h-5.708a.335.335,0,0,1-.308-.325.309.309,0,0,1,.308-.3h5.225a.515.515,0,0,1,.5-.417.519.519,0,1,1-.015,1.038" transform="translate(-128.418 -33.354)"/>
      <path id="パス_229" data-name="パス 229" d="M312.007,83.679c.054.511-.01.862-.2,1.024a.406.406,0,0,1-.42.082c-1.1-.46-2.368-2.091-2.368-4.7a18.637,18.637,0,0,1,.142-2.063c.044-.391.083-.742.083-.985.015-.5.1-.9-.083-1.106a.254.254,0,0,1,.215-.431,1.306,1.306,0,0,1,.962,1.239,6.585,6.585,0,0,1-.19,1.121,10.091,10.091,0,0,0-.308,2.078c0,.77.278,2.792,1.284,3.291a8.055,8.055,0,0,0,.967-1.483l.42-.717a.26.26,0,1,1,.444.271,5.385,5.385,0,0,0-.947,2.375M318.3,82.1a.515.515,0,0,1-.522-.526.907.907,0,0,1,.02-.175,3.489,3.489,0,0,0-1.67-3.158.259.259,0,0,1,.205-.471c1.577.471,2.4,1.89,2.5,3.792a.526.526,0,0,1-.527.538" transform="translate(-142.27 -34.76)"/>
    </g>
  </g>
</svg>
